<svg width="200" height="165" viewBox="0 0 200 165" fill="none" xmlns="http://www.w3.org/2000/svg">
<path d="M89.7172 133.721C72.3877 150.232 61.8963 165 39.8743 165C17.8523 165 0 148.128 0 127.314C0 106.501 11.5635 99.0496 34.6907 84.3521C190.599 -19.2837 285.899 -53.2009 89.7172 133.721Z" fill="url(#paint0_linear_24_306)"/>
<path d="M82.9788 131.635C67.5674 145.865 58.2371 158.593 38.6526 158.593C19.068 158.593 3.19159 144.052 3.19159 126.113C3.19159 108.175 13.4753 101.753 34.0427 89.0854C172.695 -0.235262 257.447 -29.4675 82.9788 131.635Z" fill="url(#paint1_linear_24_306)"/>
<path d="M75.8866 130.985C65.4365 141.322 56.2787 155.346 38.6526 155.346C21.0265 155.346 6.73767 142.258 6.73767 126.113C6.73767 109.969 19.4551 104.93 38.6526 93.6329C174.823 13.4992 222.341 -13.8768 75.8866 130.985Z" fill="url(#paint2_linear_24_306)"/>
<path d="M72.5611 130.784C63.1198 140.077 54.9017 152.747 39.0272 152.747C23.1526 152.747 10.2838 140.947 10.2838 126.391C10.2838 111.835 21.7374 107.292 39.0272 97.1068C161.666 24.8581 205.674 -0.235176 72.5611 130.784Z" fill="url(#paint3_linear_24_306)"/>
<defs>
<linearGradient id="paint0_linear_24_306" x1="35.461" y1="134.883" x2="171.322" y2="1.53016" gradientUnits="userSpaceOnUse">
<stop/>
<stop offset="1" stop-opacity="0"/>
</linearGradient>
<linearGradient id="paint1_linear_24_306" x1="25.8866" y1="142.353" x2="169.117" y2="3.83001" gradientUnits="userSpaceOnUse">
<stop stop-color="#1E1E1E"/>
<stop offset="1" stop-color="#C5C5C5"/>
</linearGradient>
<linearGradient id="paint2_linear_24_306" x1="31.2058" y1="129.361" x2="148.551" y2="22.4201" gradientUnits="userSpaceOnUse">
<stop/>
<stop offset="1" stop-color="#525252" stop-opacity="0"/>
<stop offset="1"/>
</linearGradient>
<linearGradient id="paint3_linear_24_306" x1="31.2057" y1="131.635" x2="149.266" y2="24.6421" gradientUnits="userSpaceOnUse">
<stop stop-color="white"/>
<stop offset="1" stop-color="white" stop-opacity="0.7"/>
</linearGradient>
</defs>
</svg>
